<?xml version="1.0" standalone="no"?>
<!DOCTYPE svg PUBLIC "-//W3C//DTD SVG 20010904//EN"
 "http://www.w3.org/TR/2001/REC-SVG-20010904/DTD/svg10.dtd">
<svg version="1.0" xmlns="http://www.w3.org/2000/svg"
 width="700.000000pt" height="700.000000pt" viewBox="0 0 700.000000 700.000000"
 preserveAspectRatio="xMidYMid meet">
<metadata>
Created by potrace 1.11, written by Peter Selinger 2001-2013
</metadata>
<g transform="translate(0.000000,700.000000) scale(0.100000,-0.100000)"
fill="#000000" stroke="none">
<path d="M0 3500 l0 -3500 1078 0 1077 0 62 178 c97 279 433 1235 440 1252 3
8 7 17 8 20 1 3 4 12 7 20 4 8 29 83 58 165 28 83 56 161 61 175 6 14 21 56
34 95 24 71 45 133 263 750 66 187 141 401 167 475 26 74 53 149 61 167 8 17
14 34 14 37 0 4 59 174 131 379 72 205 149 422 169 482 34 98 76 217 172 485
16 47 47 135 68 195 21 61 59 168 84 239 25 70 46 130 46 132 0 2 -218 4 -485
4 -380 0 -486 -3 -490 -12 -2 -7 -26 -76 -53 -153 -28 -77 -97 -275 -155 -440
-58 -165 -120 -340 -137 -390 -17 -49 -89 -254 -160 -455 -70 -201 -153 -435
-183 -520 -30 -85 -74 -209 -97 -275 -23 -66 -68 -194 -100 -285 -32 -91 -128
-363 -213 -605 -86 -242 -201 -570 -258 -730 -56 -159 -116 -330 -133 -380
l-31 -89 -288 -1 c-181 0 -291 4 -295 10 -9 14 -9 5134 0 5148 8 13 5121 18
5148 6 13 -6 15 -302 15 -2579 0 -1903 -3 -2573 -12 -2578 -12 -7 -540 -9
-546 -1 -2 2 -46 123 -97 269 -51 146 -117 335 -147 420 -30 85 -59 166 -63
180 -4 14 -31 90 -60 170 -28 80 -53 150 -54 155 -2 6 -6 17 -9 25 -6 13 -41
112 -154 435 -47 136 -86 244 -120 340 l-29 80 -486 3 -487 2 -7 -22 c-4 -13
-9 -27 -10 -33 -1 -5 -32 -93 -69 -195 -37 -102 -73 -203 -80 -225 -14 -44
-84 -243 -111 -315 -9 -25 -22 -63 -29 -86 l-12 -41 319 0 c175 0 321 -2 323
-5 3 -2 33 -87 69 -189 83 -239 201 -576 231 -659 21 -58 67 -190 182 -515 79
-227 169 -481 226 -640 l25 -70 1061 -3 1061 -2 0 3500 0 3500 -3500 0 -3500
0 0 -3500z"/>
</g>
</svg>
